<?xml version="1.0" encoding="UTF-8" standalone="no"?>
<!-- Created with Inkscape (http://www.inkscape.org/) -->

<svg
   xmlns:dc="http://purl.org/dc/elements/1.1/"
   xmlns:cc="http://creativecommons.org/ns#"
   xmlns:rdf="http://www.w3.org/1999/02/22-rdf-syntax-ns#"
   xmlns:svg="http://www.w3.org/2000/svg"
   xmlns="http://www.w3.org/2000/svg"
   xmlns:sodipodi="http://sodipodi.sourceforge.net/DTD/sodipodi-0.dtd"
   xmlns:inkscape="http://www.inkscape.org/namespaces/inkscape"
   width="124"
   height="4"
   id="svg2"
   viewBox="0 0 124 4"
   version="1.1"
   inkscape:version="0.48.4 r9939"
   sodipodi:docname="dashed-line.svg">
  <defs
     id="defs4" />
  <sodipodi:namedview
     id="base"
     pagecolor="#ffffff"
     bordercolor="#666666"
     borderopacity="1.0"
     inkscape:pageopacity="0.0"
     inkscape:pageshadow="2"
     inkscape:zoom="5.692"
     inkscape:cx="76.095169"
     inkscape:cy="26.906333"
     inkscape:document-units="px"
     inkscape:current-layer="svg2"
     showgrid="true"
     inkscape:window-width="1598"
     inkscape:window-height="850"
     inkscape:window-x="0"
     inkscape:window-y="0"
     inkscape:window-maximized="1">
    <inkscape:grid
       type="xygrid"
       id="grid2985"
       empspacing="5"
       visible="true"
       enabled="true"
       snapvisiblegridlinesonly="true" />
  </sodipodi:namedview>
  <metadata
     id="metadata7">
    <rdf:RDF>
      <cc:Work
         rdf:about="">
        <dc:format>image/svg+xml</dc:format>
        <dc:type
           rdf:resource="http://purl.org/dc/dcmitype/StillImage" />
        <dc:title></dc:title>
      </cc:Work>
    </rdf:RDF>
  </metadata>
  <path
     d="M 1.8125,0 A 2.0021961,2.0021961 0 1 0 2,4 l 120,0 a 2.0002,2.0002 0 1 0 0,-4 L 2,0 A 2.0002,2.0002 0 0 0 1.8125,0 z M 2,1.5 l 8,0 0.125,0 0.34375,0.3125 -0.0625,0.46875 L 10,2.5 2,2.5 1.875,2.5 1.53125,2.1875 1.59375,1.71875 2,1.5 z m 16,0 8,0 0.125,0 0.34375,0.3125 -0.0625,0.46875 L 26,2.5 18,2.5 17.875,2.5 17.53125,2.1875 17.59375,1.71875 18,1.5 z m 16,0 8,0 0.125,0 0.34375,0.3125 -0.0625,0.46875 L 42,2.5 34,2.5 33.875,2.5 33.53125,2.1875 33.59375,1.71875 34,1.5 z m 16,0 8,0 0.125,0 0.34375,0.3125 -0.0625,0.46875 L 58,2.5 50,2.5 49.875,2.5 49.53125,2.1875 49.59375,1.71875 50,1.5 z m 16,0 8,0 0.125,0 0.34375,0.3125 -0.0625,0.46875 L 74,2.5 66,2.5 65.875,2.5 65.53125,2.1875 65.59375,1.71875 66,1.5 z m 16,0 8,0 0.125,0 0.34375,0.3125 -0.0625,0.46875 L 90,2.5 82,2.5 81.875,2.5 81.53125,2.1875 81.59375,1.71875 82,1.5 z m 16,0 8,0 0.125,0 0.34375,0.3125 -0.0625,0.46875 L 106,2.5 98,2.5 97.875,2.5 97.53125,2.1875 97.59375,1.71875 98,1.5 z m 16,0 8,0 0.125,0 0.34375,0.3125 -0.0625,0.46875 L 122,2.5 l -8,0 -0.125,0 -0.34375,-0.3125 0.0625,-0.46875 L 114,1.5 z"
     id="path2987"
     inkscape:connector-curvature="0" />
</svg>
